<?xml version="1.0" encoding="utf-8"?>
<!-- Generator: Adobe Illustrator 23.0.1, SVG Export Plug-In . SVG Version: 6.00 Build 0)  -->
<svg version="1.1" id="Layer_1" xmlns="http://www.w3.org/2000/svg" xmlns:xlink="http://www.w3.org/1999/xlink" x="0px" y="0px"
	 viewBox="0 0 92.94 92.43" style="enable-background:new 0 0 92.94 92.43;" xml:space="preserve">
<style type="text/css">
	.st0{fill:#2FA99F;}
	.st1{display:none;}
	.st2{display:inline;fill:#E6E6E6;}
	.st3{fill:#E6E6E6;}
</style>
<circle class="st0" cx="46.59" cy="46.72" r="43.24"/>
<g class="st1">
	<path class="st2" d="M63.43,58.1h-6.78v10.5h-4.97V58.1H29.46v-4.53l21.69-30.91h5.5v30.72h6.78V58.1z M51.68,53.38V38.19
		c0-2.98,0.1-6.34,0.31-10.09h-0.25c-1,2-1.94,3.66-2.81,4.97L34.65,53.38H51.68z"/>
</g>
<g>
	<path class="st3" d="M59.56,33.66c0,2.92-0.82,5.3-2.45,7.16c-1.64,1.85-3.95,3.09-6.95,3.72v0.25c3.67,0.46,6.38,1.63,8.16,3.5
		c1.77,1.88,2.66,4.33,2.66,7.38c0,4.35-1.51,7.7-4.53,10.05c-3.02,2.34-7.31,3.52-12.87,3.52c-2.42,0-4.63-0.18-6.64-0.55
		c-2.01-0.36-3.96-1-5.86-1.92v-4.94c1.98,0.98,4.09,1.72,6.33,2.23c2.24,0.51,4.36,0.77,6.36,0.77c7.9,0,11.84-3.09,11.84-9.28
		c0-5.54-4.35-8.31-13.06-8.31h-4.5v-4.47h4.56c3.56,0,6.39-0.79,8.47-2.36c2.08-1.57,3.13-3.75,3.13-6.55
		c0-2.23-0.77-3.98-2.3-5.25c-1.53-1.27-3.61-1.91-6.23-1.91c-2,0-3.89,0.27-5.66,0.81c-1.77,0.54-3.79,1.54-6.06,3L31.31,27
		c1.87-1.48,4.04-2.64,6.48-3.48c2.45-0.84,5.03-1.27,7.73-1.27c4.44,0,7.88,1.02,10.34,3.05C58.33,27.33,59.56,30.12,59.56,33.66z"
		/>
</g>
<g class="st1">
	<path class="st2" d="M61.27,68.6H31.24v-4.47l12.03-12.09c3.67-3.71,6.08-6.35,7.25-7.94c1.17-1.58,2.04-3.13,2.63-4.63
		c0.58-1.5,0.88-3.11,0.88-4.84c0-2.44-0.74-4.37-2.22-5.8c-1.48-1.43-3.53-2.14-6.16-2.14c-1.9,0-3.69,0.31-5.39,0.94
		c-1.7,0.63-3.59,1.76-5.67,3.41l-2.75-3.53c4.21-3.5,8.79-5.25,13.75-5.25c4.29,0,7.66,1.1,10.09,3.3c2.44,2.2,3.66,5.15,3.66,8.86
		c0,2.9-0.81,5.76-2.44,8.59c-1.63,2.83-4.67,6.42-9.13,10.75l-10,9.78v0.25h23.5V68.6z"/>
</g>
<g class="st1">
	<path class="st2" d="M50.46,68.6H45.4V36.03c0-2.71,0.08-5.27,0.25-7.69c-0.44,0.44-0.93,0.9-1.47,1.38
		c-0.54,0.48-3.02,2.51-7.44,6.09l-2.75-3.56l12.09-9.34h4.37V68.6z"/>
</g>
</svg>
