<?xml version="1.0" encoding="utf-8"?>
<!-- Generator: Adobe Illustrator 23.0.1, SVG Export Plug-In . SVG Version: 6.00 Build 0)  -->
<svg version="1.1" id="Layer_1" xmlns="http://www.w3.org/2000/svg" xmlns:xlink="http://www.w3.org/1999/xlink" x="0px" y="0px"
	 viewBox="0 0 1110.17 233.28" style="enable-background:new 0 0 1110.17 233.28;" xml:space="preserve">
<style type="text/css">
	.st0{fill:#2FA99F;stroke:#2FA99F;stroke-miterlimit:10;}
</style>
<g>
	<g>
		<polygon class="st0" points="698.38,179.64 687.22,62.77 670.73,122.14 655.25,122.14 650.37,112.97 644.52,122.14 635.6,122.14 
			628.03,140.88 616.82,105.14 609.01,122.14 1,122.52 1,119.11 607.94,120.47 617.12,100.51 628.23,135.94 634.47,120.47 
			643.61,120.47 650.5,109.67 656.25,120.47 669.46,120.47 688.02,53.64 699.18,170.49 713.01,120.47 726.04,120.47 733.02,113.34 
			740.54,120.47 746.55,120.47 754.82,100.66 763.07,120.47 768.89,120.47 768.89,122.14 761.96,122.14 754.82,104.99 
			747.67,122.14 739.87,122.14 733.06,115.68 726.75,122.14 714.28,122.14 		"/>
	</g>
	<g>
		<polygon class="st0" points="867.82,179.64 856.66,62.77 840.17,122.14 824.69,122.14 819.82,112.97 813.97,122.14 805.04,122.14 
			797.48,140.88 786.27,105.14 778.46,122.14 768.89,122.14 768.89,120.47 777.39,120.47 786.57,100.51 797.67,135.94 
			803.92,120.47 813.05,120.47 819.95,109.67 825.7,120.47 838.91,120.47 857.47,53.64 868.62,170.49 882.46,120.47 895.49,120.47 
			902.46,113.34 909.99,120.47 916,120.47 924.26,100.66 932.52,120.47 938.34,120.47 938.34,122.14 931.41,122.14 924.26,104.99 
			917.11,122.14 909.32,122.14 902.51,115.68 896.19,122.14 883.73,122.14 		"/>
	</g>
	<g>
		<polygon class="st0" points="1037.27,179.64 1026.11,62.77 1009.62,122.14 994.14,122.14 989.27,112.97 983.41,122.14 
			974.49,122.14 966.92,140.88 955.72,105.14 947.9,122.14 938.34,122.14 938.34,120.47 946.84,120.47 956.01,100.51 967.12,135.94 
			973.36,120.47 982.5,120.47 989.4,109.67 995.14,120.47 1008.35,120.47 1026.92,53.64 1038.07,170.49 1051.91,120.47 
			1064.94,120.47 1071.91,113.34 1079.43,120.47 1085.45,120.47 1093.71,100.66 1101.97,120.47 1107.78,120.47 1107.78,122.14 
			1100.85,122.14 1093.71,104.99 1086.56,122.14 1078.77,122.14 1071.95,115.68 1065.64,122.14 1053.18,122.14 		"/>
	</g>
</g>
</svg>
