<?xml version="1.0" encoding="utf-8"?>
<!-- Generator: Adobe Illustrator 23.0.1, SVG Export Plug-In . SVG Version: 6.00 Build 0)  -->
<svg version="1.1" id="Layer_1" xmlns="http://www.w3.org/2000/svg" xmlns:xlink="http://www.w3.org/1999/xlink" x="0px" y="0px"
	 viewBox="0 0 43.63 44.22" style="enable-background:new 0 0 43.63 44.22;" xml:space="preserve">
<style type="text/css">
	.st0{fill:#ED5621;}
	.st1{opacity:0.13;}
	.st2{display:none;fill:#FFFFFF;}
	.st3{fill:#161616;}
</style>
<g id="icon">
	<circle id="circle" class="st0" cx="21.82" cy="22.11" r="20.06"/>
	<path id="shadow" class="st1" d="M33.64,5.89C4.93,4.66,3.98,31.07,3.98,31.26c-1.41-2.74-2.2-5.85-2.2-9.15
		c0-11.08,8.98-20.06,20.06-20.06C26.25,2.05,30.33,3.48,33.64,5.89z"/>
	<g id="mission">
		<path class="st3" d="M21.8,27.77c-2.45,0-4.5-2.04-4.51-4.48c0-2.46,2.01-4.5,4.47-4.52c2.48-0.02,4.54,2.03,4.54,4.51
			C26.3,25.72,24.25,27.76,21.8,27.77z"/>
		<path class="st3" d="M9.49,23.26c2.88-3.17,5.96-5.85,10.18-6.84c1.66-0.39,3.33-0.32,4.96,0.17c3.88,1.16,6.8,3.68,9.53,6.74
			c-1.13,1.07-2.19,2.16-3.34,3.15c-1.64,1.42-3.48,2.55-5.55,3.26c-2.08,0.72-4.19,0.83-6.3,0.2
			C15.09,28.78,12.17,26.26,9.49,23.26z M21.79,17.88c-2.96,0-5.38,2.42-5.38,5.38c0,2.97,2.4,5.38,5.36,5.39
			c2.97,0.01,5.4-2.39,5.41-5.35C27.2,20.3,24.79,17.88,21.79,17.88z"/>
		<circle class="st0" cx="21.82" cy="23.26" r="1.71"/>
	</g>
</g>
</svg>
