<?xml version="1.0" encoding="utf-8"?>
<!-- Generator: Adobe Illustrator 23.0.1, SVG Export Plug-In . SVG Version: 6.00 Build 0)  -->
<svg version="1.1" id="Layer_1" xmlns="http://www.w3.org/2000/svg" xmlns:xlink="http://www.w3.org/1999/xlink" x="0px" y="0px"
	 viewBox="0 0 220.39 225.72" style="enable-background:new 0 0 220.39 225.72;" xml:space="preserve">
<style type="text/css">
	.st0{fill:#ED5621;}
	.st1{opacity:0.13;}
	.st2{fill:#161616;}
</style>
<g id="heart_1_">
	<circle id="circle" class="st0" cx="110.2" cy="112.86" r="104.23"/>
	<path id="shadow" class="st1" d="M171.63,28.59C22.43,22.19,17.53,159.41,17.5,160.41c-7.32-14.26-11.46-30.42-11.46-47.55
		C6.04,55.29,52.71,8.63,110.27,8.63C133.21,8.63,154.42,16.04,171.63,28.59z"/>
	<path id="heart" class="st2" d="M160.58,97.48c-1.26-20-17.14-24.44-17.14-24.44c-20.36-5.58-34.41,10.87-34.41,10.87
		S94.95,67.45,74.59,73.04c0,0-15.87,4.44-17.13,24.44c-1.38,21.82,37.88,59.29,51.57,68.3C122.72,156.77,161.96,119.3,160.58,97.48
		z"/>
</g>
</svg>
