<?xml version="1.0" encoding="utf-8"?>
<!-- Generator: Adobe Illustrator 23.0.1, SVG Export Plug-In . SVG Version: 6.00 Build 0)  -->
<svg version="1.1" id="Layer_1" xmlns="http://www.w3.org/2000/svg" xmlns:xlink="http://www.w3.org/1999/xlink" x="0px" y="0px"
	 viewBox="0 0 220.39 225.72" style="enable-background:new 0 0 220.39 225.72;" xml:space="preserve">
<style type="text/css">
	.st0{fill:#ED5621;}
	.st1{opacity:0.13;enable-background:new    ;}
</style>
<path class="st0" d="M110.2,8.63C52.64,8.63,5.97,55.3,5.97,112.86S52.64,217.09,110.2,217.09s104.23-46.67,104.23-104.23
	S167.76,8.63,110.2,8.63z M109.03,165.78c-13.69-9.01-52.95-46.48-51.57-68.3c1.26-20,17.13-24.44,17.13-24.44
	c20.36-5.59,34.44,10.87,34.44,10.87s14.05-16.45,34.41-10.87c0,0,15.88,4.44,17.14,24.44C161.96,119.3,122.72,156.77,109.03,165.78
	z"/>
<path id="shadow" class="st1" d="M171.63,28.59C22.43,22.19,17.53,159.41,17.5,160.41c-7.32-14.26-11.46-30.42-11.46-47.55
	C6.04,55.29,52.71,8.63,110.27,8.63C133.21,8.63,154.42,16.04,171.63,28.59z"/>
</svg>
