<?xml version="1.0" encoding="utf-8"?>
<!-- Generator: Adobe Illustrator 23.0.1, SVG Export Plug-In . SVG Version: 6.00 Build 0)  -->
<svg version="1.1" id="Layer_1" xmlns="http://www.w3.org/2000/svg" xmlns:xlink="http://www.w3.org/1999/xlink" x="0px" y="0px"
	 viewBox="0 0 43.63 44.22" style="enable-background:new 0 0 43.63 44.22;" xml:space="preserve">
<style type="text/css">
	.st0{fill:#ED5621;}
	.st1{opacity:0.13;}
	.st2{fill:#161616;}
	.st3{display:none;fill:#FFFFFF;}
</style>
<g id="icon">
	<circle id="circle" class="st0" cx="21.82" cy="22.11" r="20.06"/>
	<path id="shadow" class="st1" d="M33.64,5.89C4.93,4.66,3.98,31.07,3.98,31.26c-1.41-2.74-2.2-5.85-2.2-9.15
		c0-11.08,8.98-20.06,20.06-20.06C26.25,2.05,30.33,3.48,33.64,5.89z"/>
	<path id="check" class="st2" d="M32.02,17.13l-2.29-2.36c-0.22-0.23-0.58-0.23-0.8-0.01l-9.14,8.89l-4.72-4.68
		c-0.22-0.23-0.58-0.23-0.8-0.01l-2.37,2.28c-0.23,0.22-0.23,0.58-0.01,0.8l7.46,7.4c0.22,0.23,0.58,0.23,0.8,0.01l1.7-1.64
		c0,0,0.01,0,0.01-0.01l0.25-0.25l0.4-0.39c0,0,0.01-0.01,0.01-0.01l9.49-9.22C32.23,17.72,32.24,17.36,32.02,17.13z"/>
</g>
</svg>
