<?xml version="1.0" encoding="utf-8"?>
<!-- Generator: Adobe Illustrator 23.0.1, SVG Export Plug-In . SVG Version: 6.00 Build 0)  -->
<svg version="1.1" id="Layer_1" xmlns="http://www.w3.org/2000/svg" xmlns:xlink="http://www.w3.org/1999/xlink" x="0px" y="0px"
	 viewBox="0 0 79.41 78.82" style="enable-background:new 0 0 79.41 78.82;" xml:space="preserve">
<style type="text/css">
	.st0{display:none;}
	.st1{display:inline;fill:#ED5621;}
	.st2{display:none;fill:#ED5621;}
	.st3{fill:#ED5621;}
</style>
<g class="st0">
	<path class="st1" d="M39.71,3.55L39.71,3.55C19.9,3.55,3.84,19.6,3.84,39.41S19.9,75.28,39.71,75.28h0
		c19.81,0,35.86-16.06,35.86-35.86S59.51,3.55,39.71,3.55z M59.25,47.52c-0.1,2.09-0.43,3.52-0.91,4.77
		c-0.5,1.29-1.17,2.39-2.27,3.48c-1.09,1.09-2.19,1.77-3.48,2.27c-1.25,0.49-2.68,0.82-4.77,0.91c-2.1,0.1-2.77,0.12-8.11,0.12
		c-5.34,0-6.01-0.02-8.11-0.12c-2.09-0.1-3.52-0.43-4.77-0.91c-1.29-0.5-2.39-1.17-3.48-2.27c-1.09-1.09-1.77-2.19-2.27-3.48
		c-0.49-1.25-0.82-2.68-0.91-4.77c-0.1-2.1-0.12-2.77-0.12-8.11s0.02-6.01,0.12-8.11c0.1-2.09,0.43-3.52,0.91-4.77
		c0.5-1.29,1.17-2.39,2.27-3.48c1.09-1.09,2.19-1.77,3.48-2.27c1.25-0.49,2.68-0.82,4.77-0.91c2.1-0.1,2.77-0.12,8.11-0.12
		c5.34,0,6.01,0.02,8.11,0.12c2.09,0.1,3.52,0.43,4.77,0.91c1.29,0.5,2.39,1.17,3.48,2.27c1.09,1.09,1.77,2.19,2.27,3.48
		c0.49,1.25,0.82,2.68,0.91,4.77c0.1,2.1,0.12,2.77,0.12,8.11S59.35,45.42,59.25,47.52z"/>
	<path class="st1" d="M55.03,27.81c-0.36-0.92-0.78-1.57-1.47-2.26c-0.69-0.69-1.34-1.11-2.26-1.47c-0.69-0.27-1.73-0.59-3.65-0.68
		c-2.07-0.09-2.7-0.11-7.95-0.11c-5.25,0-5.87,0.02-7.95,0.11c-1.92,0.09-2.96,0.41-3.65,0.68c-0.92,0.36-1.57,0.78-2.26,1.47
		c-0.69,0.69-1.11,1.34-1.47,2.26c-0.27,0.69-0.59,1.73-0.68,3.65c-0.09,2.07-0.11,2.7-0.11,7.95c0,5.25,0.02,5.87,0.11,7.95
		c0.09,1.92,0.41,2.96,0.68,3.65c0.36,0.92,0.78,1.57,1.47,2.26c0.69,0.69,1.34,1.11,2.26,1.47c0.69,0.27,1.73,0.59,3.65,0.68
		c2.07,0.09,2.69,0.11,7.95,0.11c5.25,0,5.87-0.02,7.95-0.11c1.92-0.09,2.96-0.41,3.65-0.68c0.92-0.36,1.57-0.78,2.26-1.47
		c0.69-0.69,1.11-1.34,1.47-2.26c0.27-0.69,0.59-1.73,0.68-3.65c0.09-2.07,0.11-2.7,0.11-7.95c0-5.25-0.02-5.87-0.11-7.95
		C55.62,29.55,55.3,28.51,55.03,27.81z M39.71,49.51c-5.58,0-10.1-4.52-10.1-10.1c0-5.58,4.52-10.1,10.1-10.1
		c5.58,0,10.1,4.52,10.1,10.1C49.8,44.99,45.28,49.51,39.71,49.51z M50.2,31.28c-1.3,0-2.36-1.06-2.36-2.36
		c0-1.3,1.06-2.36,2.36-2.36c1.3,0,2.36,1.06,2.36,2.36C52.56,30.22,51.51,31.28,50.2,31.28z"/>
	<path class="st1" d="M39.71,32.86c-3.62,0-6.55,2.93-6.55,6.55c0,3.62,2.93,6.55,6.55,6.55c3.62,0,6.55-2.93,6.55-6.55
		C46.26,35.79,43.33,32.86,39.71,32.86z"/>
</g>
<path class="st2" d="M39.71,3.55C19.9,3.55,3.84,19.6,3.84,39.41S19.9,75.28,39.71,75.28s35.86-16.06,35.86-35.86
	S59.51,3.55,39.71,3.55z M49.71,25.33c0,0-3.38,0-4.72,0c-1.67,0-2.02,0.68-2.02,2.41c0,1.44,0,4.17,0,4.17h6.74l-0.65,7.32h-6.09
	v21.86h-8.73V39.32H29.7v-7.41h4.54c0,0,0-1.07,0-5.84c0-5.48,2.93-8.34,9.43-8.34c1.06,0,6.05,0,6.05,0V25.33z"/>
<g>
	<polygon class="st3" points="33.83,47.95 48.84,39.41 33.83,30.88 	"/>
	<path class="st3" d="M39.71,3.55C19.9,3.55,3.84,19.6,3.84,39.41v0c0,19.81,16.06,35.86,35.86,35.86s35.86-16.06,35.86-35.86v0
		C75.57,19.6,59.51,3.55,39.71,3.55z M67.21,53.32c-0.66,2.49-2.61,4.44-5.08,5.11c-4.48,1.21-22.43,1.21-22.43,1.21
		s-17.95,0-22.43-1.21c-2.47-0.66-4.41-2.62-5.08-5.11C11,48.81,11,39.41,11,39.41s0-9.4,1.2-13.91c0.66-2.49,2.61-4.44,5.08-5.11
		c4.48-1.21,22.43-1.21,22.43-1.21s17.95,0,22.43,1.21c2.47,0.66,4.41,2.62,5.08,5.11c1.2,4.51,1.2,13.91,1.2,13.91
		S68.41,48.81,67.21,53.32z"/>
</g>
</svg>
